<?xml version="1.0" standalone="no"?>
<!DOCTYPE svg PUBLIC "-//W3C//DTD SVG 20010904//EN"
 "http://www.w3.org/TR/2001/REC-SVG-20010904/DTD/svg10.dtd">
<svg version="1.0" xmlns="http://www.w3.org/2000/svg"
 width="840.000000pt" height="840.000000pt" viewBox="0 0 840.000000 840.000000"
 preserveAspectRatio="xMidYMid meet">
<metadata>
Created by potrace 1.11, written by Peter Selinger 2001-2013
</metadata>
<g transform="translate(0.000000,840.000000) scale(0.100000,-0.100000)"
fill="#000000" stroke="none">
<path d="M5850 5915 l0 -504 615 -616 615 -616 -615 -616 -615 -616 0 -498 c0
-275 2 -499 4 -499 2 0 505 501 1119 1114 l1116 1114 -1119 1120 -1120 1121 0
-504z"/>
<path d="M1418 5291 l-1118 -1116 1120 -1120 1120 -1120 0 505 0 505 -615 615
-615 615 615 615 615 615 -2 501 -3 501 -1117 -1116z"/>
<path d="M5255 6294 c-55 -57 -420 -426 -811 -821 -392 -395 -814 -821 -938
-948 -125 -126 -347 -350 -492 -496 -146 -147 -262 -269 -257 -271 4 -2 221
-4 481 -3 259 0 472 -3 472 -7 0 -10 -49 -148 -67 -187 -8 -18 -19 -45 -23
-60 -4 -14 -51 -143 -105 -286 -53 -142 -102 -275 -109 -295 -7 -19 -39 -105
-71 -190 -31 -85 -120 -324 -197 -530 -76 -206 -146 -393 -154 -415 -13 -35 6
-19 163 137 98 97 275 273 395 390 211 208 953 940 1725 1703 l385 380 -478
-1 c-264 0 -482 1 -486 3 -4 2 25 94 63 206 38 111 90 261 114 332 24 72 107
317 185 545 78 228 150 440 160 470 10 30 48 142 85 249 36 106 64 194 63 195
-2 1 -48 -44 -103 -100z"/>
</g>
</svg>
